<svg xmlns="http://www.w3.org/2000/svg" viewBox="0 0 198 162"><defs><style>.cls-1{fill:#e50047;}.cls-2{fill:#e83755;}.cls-3{fill:#ea5164;}.cls-4{fill:#ed6c76;}</style></defs><g id="Layer_2" data-name="Layer 2"><g id="Layer_1-2" data-name="Layer 1"><polygon class="cls-1" points="180 36 180 18 162 18 162 0 144 0 126 0 126 18 108 18 108 36 90 36 90 18 72 18 72 0 54 0 36 0 36 18 18 18 18 36 0 36 0 54 0 72 18 72 18 90 36 90 36 108 54 108 54 126 72 126 72 144 90 144 90 162 108 162 108 144 126 144 126 126 144 126 144 108 162 108 162 90 180 90 180 72 198 72 198 54 198 36 180 36"/><rect class="cls-2" x="90" y="54" width="18" height="18"/><rect class="cls-2" x="72" y="36" width="18" height="18"/><polygon class="cls-3" points="144 54 144 36 126 36 126 54 108 54 108 72 90 72 90 54 72 54 54 54 54 72 72 72 72 90 90 90 90 108 108 108 126 108 126 90 144 90 144 72 162 72 162 54 144 54"/><rect class="cls-4" x="90" y="108" width="18" height="18"/><rect class="cls-4" x="72" y="90" width="18" height="18"/><rect class="cls-4" x="54" y="72" width="18" height="18"/><polygon class="cls-4" points="72 54 72 36 54 36 36 36 36 54 36 72 54 72 54 54 72 54"/><rect class="cls-4" x="108" y="36" width="18" height="18"/><rect class="cls-4" x="126" y="18" width="18" height="18"/><rect class="cls-3" x="72" y="108" width="18" height="18"/><rect class="cls-3" x="54" y="90" width="18" height="18"/><rect class="cls-3" x="36" y="72" width="18" height="18"/><polygon class="cls-3" points="18 36 18 54 18 72 36 72 36 54 36 36 18 36"/><polygon class="cls-3" points="54 18 36 18 36 36 54 36 72 36 72 18 54 18"/><rect class="cls-2" x="108" y="108" width="18" height="18"/><rect class="cls-2" x="126" y="90" width="18" height="18"/><rect class="cls-2" x="144" y="72" width="18" height="18"/><polygon class="cls-2" points="162 36 162 18 144 18 144 36 144 54 162 54 162 72 180 72 180 54 180 36 162 36"/><rect class="cls-2" x="90" y="126" width="18" height="18"/></g></g></svg>